<?xml version="1.0" encoding="utf-8"?>
<!-- Generator: Adobe Illustrator 21.1.0, SVG Export Plug-In . SVG Version: 6.00 Build 0)  -->
<svg version="1.1" id="Layer_1" xmlns="http://www.w3.org/2000/svg" xmlns:xlink="http://www.w3.org/1999/xlink" x="0px" y="0px"
	 viewBox="0 0 233.1 64.6" style="enable-background:new 0 0 233.1 64.6;" xml:space="preserve">
<style type="text/css">
	.st0{fill:#FFCD03;}
</style>
<g>
	<rect x="61.5" y="27.8" class="st0" width="13.7" height="36.9"/>
	<polygon class="st0" points="160.6,37.4 160.6,27.8 136.4,27.8 122.7,27.8 122.6,27.8 122.6,64.7 122.7,64.7 136.4,64.7 
		160.6,64.7 160.6,55.1 136.4,55.1 136.4,37.4 	"/>
	<polygon class="st0" points="216.2,27.8 205.8,27.8 186.6,27.8 186.6,37.4 205.8,37.4 205.8,64.7 219.6,64.7 219.6,27.8 	"/>
	<rect x="166.5" y="9" class="st0" width="13.7" height="55.7"/>
	<path class="st0" d="M102.6,9v18.8h-8.2H80.6v36.9H85h9.3h8.2h12h1.8V9H102.6z M94.4,55.1V37.4h8.2V55L94.4,55.1L94.4,55.1z"/>
	<polygon class="st0" points="42.2,27.8 42.2,45.3 33.9,36.9 33.9,9 20.1,9 20.1,42.6 20.1,42.6 42.2,64.7 42.2,64.7 42.2,64.7 
		56,64.7 56,27.8 	"/>
	<circle class="st0" cx="68.4" cy="16" r="6.8"/>
	<circle class="st0" cx="142.1" cy="46.2" r="6.8"/>
	<circle class="st0" cx="196.9" cy="55.1" r="9.6"/>
</g>
</svg>
